<mxfile host="app.diagrams.net" modified="2021-09-16T20:28:52.004Z" agent="5.0 (Windows NT 10.0; Win64; x64) AppleWebKit/537.36 (KHTML, like Gecko) Chrome/93.0.4577.82 Safari/537.36" etag="4w1sSaah6N0hRumfjStF" version="15.2.7" type="github">
  <diagram id="W8TYWGvJjdLmYTamrwDc" name="Page-1">
    <mxGraphModel dx="2076" dy="1094" grid="1" gridSize="10" guides="1" tooltips="1" connect="1" arrows="1" fold="1" page="1" pageScale="1" pageWidth="3300" pageHeight="2339" math="0" shadow="0">
      <root>
        <mxCell id="0" />
        <mxCell id="1" parent="0" />
        <mxCell id="VUACEz1JpxJwVOecZVs_-1" value="&lt;div style=&quot;box-sizing: border-box ; width: 100% ; background: #e4e4e4 ; padding: 2px&quot;&gt;Company&lt;/div&gt;&lt;table style=&quot;width: 100% ; font-size: 1em&quot; cellpadding=&quot;2&quot; cellspacing=&quot;0&quot;&gt;&lt;tbody&gt;&lt;tr&gt;&lt;td&gt;PK&lt;/td&gt;&lt;td&gt;IDCompany&lt;/td&gt;&lt;/tr&gt;&lt;tr&gt;&lt;td&gt;&lt;br&gt;&lt;/td&gt;&lt;td&gt;&lt;br&gt;&lt;/td&gt;&lt;/tr&gt;&lt;tr&gt;&lt;td&gt;&lt;/td&gt;&lt;td&gt;&lt;br&gt;&lt;/td&gt;&lt;/tr&gt;&lt;/tbody&gt;&lt;/table&gt;" style="verticalAlign=top;align=left;overflow=fill;html=1;" parent="1" vertex="1">
          <mxGeometry x="100" y="440" width="180" height="100" as="geometry" />
        </mxCell>
        <mxCell id="VUACEz1JpxJwVOecZVs_-2" value="&lt;div style=&quot;box-sizing: border-box ; width: 100% ; background: #e4e4e4 ; padding: 2px&quot;&gt;&lt;span id=&quot;docs-internal-guid-86ab682c-7fff-0056-169a-d22813b2dd55&quot;&gt;&lt;span style=&quot;font-size: 11pt ; font-family: &amp;#34;calibri&amp;#34; , sans-serif ; background-color: transparent ; vertical-align: baseline&quot;&gt;ComputerGameRetailers&lt;/span&gt;&lt;/span&gt;&lt;br&gt;&lt;/div&gt;&lt;table style=&quot;width: 100% ; font-size: 1em&quot; cellpadding=&quot;2&quot; cellspacing=&quot;0&quot;&gt;&lt;tbody&gt;&lt;tr&gt;&lt;td&gt;PK&lt;/td&gt;&lt;td&gt;IDSeller&lt;br&gt;&lt;/td&gt;&lt;/tr&gt;&lt;tr&gt;&lt;td&gt;&lt;br&gt;&lt;/td&gt;&lt;td&gt;&lt;br&gt;&lt;/td&gt;&lt;/tr&gt;&lt;tr&gt;&lt;td&gt;&lt;/td&gt;&lt;td&gt;&lt;br&gt;&lt;/td&gt;&lt;/tr&gt;&lt;/tbody&gt;&lt;/table&gt;" style="verticalAlign=top;align=left;overflow=fill;html=1;" parent="1" vertex="1">
          <mxGeometry x="930" y="595" width="180" height="75" as="geometry" />
        </mxCell>
        <mxCell id="VUACEz1JpxJwVOecZVs_-3" value="&lt;div style=&quot;box-sizing: border-box ; width: 100% ; background: #e4e4e4 ; padding: 2px&quot;&gt;OnlineSeller&lt;/div&gt;&lt;table style=&quot;width: 100% ; font-size: 1em&quot; cellpadding=&quot;2&quot; cellspacing=&quot;0&quot;&gt;&lt;tbody&gt;&lt;tr&gt;&lt;td&gt;PK&lt;/td&gt;&lt;td&gt;IDSeller&lt;br&gt;&lt;/td&gt;&lt;/tr&gt;&lt;tr&gt;&lt;td&gt;&lt;br&gt;&lt;/td&gt;&lt;td&gt;&lt;br&gt;&lt;/td&gt;&lt;/tr&gt;&lt;tr&gt;&lt;td&gt;&lt;/td&gt;&lt;td&gt;&lt;br&gt;&lt;/td&gt;&lt;/tr&gt;&lt;/tbody&gt;&lt;/table&gt;" style="verticalAlign=top;align=left;overflow=fill;html=1;" parent="1" vertex="1">
          <mxGeometry x="720" y="600" width="180" height="70" as="geometry" />
        </mxCell>
        <mxCell id="VUACEz1JpxJwVOecZVs_-8" value="&lt;div style=&quot;box-sizing: border-box ; width: 100% ; background: #e4e4e4 ; padding: 2px&quot;&gt;SellerGame&lt;/div&gt;&lt;table style=&quot;width: 100% ; font-size: 1em&quot; cellpadding=&quot;2&quot; cellspacing=&quot;0&quot;&gt;&lt;tbody&gt;&lt;tr&gt;&lt;td&gt;PK&lt;/td&gt;&lt;td&gt;IDSeller&lt;/td&gt;&lt;/tr&gt;&lt;tr&gt;&lt;td&gt;&lt;br&gt;&lt;/td&gt;&lt;td&gt;&lt;br&gt;&lt;/td&gt;&lt;/tr&gt;&lt;/tbody&gt;&lt;/table&gt;" style="verticalAlign=top;align=left;overflow=fill;html=1;" parent="1" vertex="1">
          <mxGeometry x="800" y="440" width="190" height="100" as="geometry" />
        </mxCell>
        <mxCell id="VUACEz1JpxJwVOecZVs_-15" value="" style="endArrow=open;endFill=1;endSize=12;html=1;exitX=0.25;exitY=1;exitDx=0;exitDy=0;entryX=0.587;entryY=-0.02;entryDx=0;entryDy=0;entryPerimeter=0;" parent="1" source="VUACEz1JpxJwVOecZVs_-8" target="VUACEz1JpxJwVOecZVs_-3" edge="1">
          <mxGeometry width="160" relative="1" as="geometry">
            <mxPoint x="890" y="580" as="sourcePoint" />
            <mxPoint x="950" y="610" as="targetPoint" />
          </mxGeometry>
        </mxCell>
        <mxCell id="VUACEz1JpxJwVOecZVs_-16" value="" style="endArrow=open;endFill=1;endSize=12;html=1;entryX=0.34;entryY=-0.02;entryDx=0;entryDy=0;entryPerimeter=0;exitX=0.656;exitY=0.998;exitDx=0;exitDy=0;exitPerimeter=0;" parent="1" source="VUACEz1JpxJwVOecZVs_-8" target="VUACEz1JpxJwVOecZVs_-2" edge="1">
          <mxGeometry width="160" relative="1" as="geometry">
            <mxPoint x="1110" y="530" as="sourcePoint" />
            <mxPoint x="1210" y="580" as="targetPoint" />
          </mxGeometry>
        </mxCell>
        <mxCell id="VUACEz1JpxJwVOecZVs_-18" value="&lt;div style=&quot;box-sizing: border-box ; width: 100% ; background: #e4e4e4 ; padding: 2px&quot;&gt;SellerPayment&lt;/div&gt;&lt;table style=&quot;width: 100% ; font-size: 1em&quot; cellpadding=&quot;2&quot; cellspacing=&quot;0&quot;&gt;&lt;tbody&gt;&lt;tr&gt;&lt;td&gt;PK&lt;/td&gt;&lt;td&gt;IDSellerPayment&lt;/td&gt;&lt;/tr&gt;&lt;tr&gt;&lt;td&gt;FK1-IDPayment&lt;br&gt;FK2-IDGame&lt;br&gt;Price&lt;br&gt;Date&lt;/td&gt;&lt;td&gt;&lt;br&gt;&lt;/td&gt;&lt;/tr&gt;&lt;tr&gt;&lt;td&gt;&lt;/td&gt;&lt;td&gt;&lt;br&gt;&lt;/td&gt;&lt;/tr&gt;&lt;/tbody&gt;&lt;/table&gt;" style="verticalAlign=top;align=left;overflow=fill;html=1;" parent="1" vertex="1">
          <mxGeometry x="440" y="410" width="240" height="110" as="geometry" />
        </mxCell>
        <mxCell id="VUACEz1JpxJwVOecZVs_-23" value="&lt;div style=&quot;box-sizing: border-box ; width: 100% ; background: #e4e4e4 ; padding: 2px&quot;&gt;Game&lt;/div&gt;&lt;table style=&quot;width: 100% ; font-size: 1em&quot; cellpadding=&quot;2&quot; cellspacing=&quot;0&quot;&gt;&lt;tbody&gt;&lt;tr&gt;&lt;td&gt;PK&lt;/td&gt;&lt;td&gt;IDGame&lt;/td&gt;&lt;/tr&gt;&lt;tr&gt;&lt;td&gt;IDCompany-Fk1&lt;br&gt;&lt;/td&gt;&lt;td&gt;&lt;br&gt;&lt;/td&gt;&lt;/tr&gt;&lt;tr&gt;&lt;td&gt;&lt;br&gt;&lt;br&gt;&lt;br&gt;&lt;br&gt;&lt;/td&gt;&lt;td&gt;&lt;br&gt;&lt;/td&gt;&lt;/tr&gt;&lt;/tbody&gt;&lt;/table&gt;" style="verticalAlign=top;align=left;overflow=fill;html=1;" parent="1" vertex="1">
          <mxGeometry x="530" y="600" width="170" height="70" as="geometry" />
        </mxCell>
        <mxCell id="VUACEz1JpxJwVOecZVs_-27" value="&lt;div style=&quot;box-sizing: border-box ; width: 100% ; background: #e4e4e4 ; padding: 2px&quot;&gt;Agreement&lt;/div&gt;&lt;table style=&quot;width: 100% ; font-size: 1em&quot; cellpadding=&quot;2&quot; cellspacing=&quot;0&quot;&gt;&lt;tbody&gt;&lt;tr&gt;&lt;td&gt;PK&lt;/td&gt;&lt;td&gt;IDAgreement&lt;/td&gt;&lt;/tr&gt;&lt;tr&gt;&lt;td&gt;IDCompany-FK1&lt;br&gt;IDISP-FK2&lt;br&gt;&lt;/td&gt;&lt;td&gt;&lt;br&gt;&lt;/td&gt;&lt;/tr&gt;&lt;tr&gt;&lt;td&gt;&lt;/td&gt;&lt;td&gt;&lt;br&gt;&lt;/td&gt;&lt;/tr&gt;&lt;/tbody&gt;&lt;/table&gt;" style="verticalAlign=top;align=left;overflow=fill;html=1;" parent="1" vertex="1">
          <mxGeometry x="200" y="600" width="180" height="70" as="geometry" />
        </mxCell>
        <mxCell id="VUACEz1JpxJwVOecZVs_-28" value="&lt;div style=&quot;box-sizing: border-box ; width: 100% ; background: #e4e4e4 ; padding: 2px&quot;&gt;ContractAuthorization&lt;/div&gt;&lt;table style=&quot;width: 100% ; font-size: 1em&quot; cellpadding=&quot;2&quot; cellspacing=&quot;0&quot;&gt;&lt;tbody&gt;&lt;tr&gt;&lt;td&gt;PK&lt;/td&gt;&lt;td&gt;IDCompany&lt;/td&gt;&lt;/tr&gt;&lt;tr&gt;&lt;td&gt;IDCompany-FK1&lt;br&gt;IDSupplier-FK2&lt;br&gt;&lt;/td&gt;&lt;td&gt;&lt;br&gt;&lt;/td&gt;&lt;/tr&gt;&lt;tr&gt;&lt;td&gt;&lt;/td&gt;&lt;td&gt;&lt;br&gt;&lt;/td&gt;&lt;/tr&gt;&lt;/tbody&gt;&lt;/table&gt;" style="verticalAlign=top;align=left;overflow=fill;html=1;" parent="1" vertex="1">
          <mxGeometry x="10" y="600" width="180" height="70" as="geometry" />
        </mxCell>
        <mxCell id="VUACEz1JpxJwVOecZVs_-30" value="&lt;div style=&quot;box-sizing: border-box ; width: 100% ; background: #e4e4e4 ; padding: 2px&quot;&gt;Supllier&lt;/div&gt;&lt;table style=&quot;width: 100% ; font-size: 1em&quot; cellpadding=&quot;2&quot; cellspacing=&quot;0&quot;&gt;&lt;tbody&gt;&lt;tr&gt;&lt;td&gt;PK&lt;/td&gt;&lt;td&gt;IDSupplier&lt;/td&gt;&lt;/tr&gt;&lt;tr&gt;&lt;td&gt;&lt;br&gt;&lt;/td&gt;&lt;td&gt;&lt;br&gt;&lt;/td&gt;&lt;/tr&gt;&lt;tr&gt;&lt;td&gt;&lt;/td&gt;&lt;td&gt;&lt;br&gt;&lt;/td&gt;&lt;/tr&gt;&lt;/tbody&gt;&lt;/table&gt;" style="verticalAlign=top;align=left;overflow=fill;html=1;" parent="1" vertex="1">
          <mxGeometry x="10" y="720" width="180" height="70" as="geometry" />
        </mxCell>
        <mxCell id="VUACEz1JpxJwVOecZVs_-31" value="" style="endArrow=open;endFill=1;endSize=12;html=1;exitX=0.556;exitY=1;exitDx=0;exitDy=0;exitPerimeter=0;entryX=0.5;entryY=0;entryDx=0;entryDy=0;" parent="1" source="VUACEz1JpxJwVOecZVs_-1" target="VUACEz1JpxJwVOecZVs_-28" edge="1">
          <mxGeometry width="160" relative="1" as="geometry">
            <mxPoint x="210" y="570" as="sourcePoint" />
            <mxPoint x="370" y="570" as="targetPoint" />
          </mxGeometry>
        </mxCell>
        <mxCell id="VUACEz1JpxJwVOecZVs_-32" value="" style="endArrow=open;endFill=1;endSize=12;html=1;exitX=0.25;exitY=0;exitDx=0;exitDy=0;" parent="1" source="VUACEz1JpxJwVOecZVs_-30" edge="1">
          <mxGeometry width="160" relative="1" as="geometry">
            <mxPoint x="140" y="860" as="sourcePoint" />
            <mxPoint x="80" y="672" as="targetPoint" />
          </mxGeometry>
        </mxCell>
        <mxCell id="VUACEz1JpxJwVOecZVs_-33" value="&lt;div style=&quot;box-sizing: border-box ; width: 100% ; background: #e4e4e4 ; padding: 2px&quot;&gt;ISP&lt;/div&gt;&lt;table style=&quot;width: 100% ; font-size: 1em&quot; cellpadding=&quot;2&quot; cellspacing=&quot;0&quot;&gt;&lt;tbody&gt;&lt;tr&gt;&lt;td&gt;PK&lt;/td&gt;&lt;td&gt;IDISP&lt;/td&gt;&lt;/tr&gt;&lt;tr&gt;&lt;td&gt;&lt;br&gt;&lt;/td&gt;&lt;td&gt;&lt;br&gt;&lt;/td&gt;&lt;/tr&gt;&lt;tr&gt;&lt;td&gt;&lt;/td&gt;&lt;td&gt;&lt;br&gt;&lt;/td&gt;&lt;/tr&gt;&lt;/tbody&gt;&lt;/table&gt;" style="verticalAlign=top;align=left;overflow=fill;html=1;" parent="1" vertex="1">
          <mxGeometry x="200" y="720" width="180" height="70" as="geometry" />
        </mxCell>
        <mxCell id="VUACEz1JpxJwVOecZVs_-34" value="" style="endArrow=open;endFill=1;endSize=12;html=1;exitX=0.58;exitY=0.998;exitDx=0;exitDy=0;exitPerimeter=0;entryX=0.442;entryY=-0.037;entryDx=0;entryDy=0;entryPerimeter=0;" parent="1" source="VUACEz1JpxJwVOecZVs_-1" target="VUACEz1JpxJwVOecZVs_-27" edge="1">
          <mxGeometry width="160" relative="1" as="geometry">
            <mxPoint x="220" y="560" as="sourcePoint" />
            <mxPoint x="380" y="560" as="targetPoint" />
          </mxGeometry>
        </mxCell>
        <mxCell id="VUACEz1JpxJwVOecZVs_-35" value="" style="endArrow=open;endFill=1;endSize=12;html=1;exitX=0.407;exitY=-0.037;exitDx=0;exitDy=0;exitPerimeter=0;entryX=0.376;entryY=1.026;entryDx=0;entryDy=0;entryPerimeter=0;" parent="1" source="VUACEz1JpxJwVOecZVs_-33" target="VUACEz1JpxJwVOecZVs_-27" edge="1">
          <mxGeometry width="160" relative="1" as="geometry">
            <mxPoint x="260" y="700" as="sourcePoint" />
            <mxPoint x="420" y="700" as="targetPoint" />
          </mxGeometry>
        </mxCell>
        <mxCell id="VUACEz1JpxJwVOecZVs_-38" value="&lt;div style=&quot;box-sizing: border-box ; width: 100% ; background: #e4e4e4 ; padding: 2px&quot;&gt;Equipment&lt;/div&gt;&lt;table style=&quot;width: 100% ; font-size: 1em&quot; cellpadding=&quot;2&quot; cellspacing=&quot;0&quot;&gt;&lt;tbody&gt;&lt;tr&gt;&lt;td&gt;PK&lt;/td&gt;&lt;td&gt;IDEquipment&lt;/td&gt;&lt;/tr&gt;&lt;tr&gt;&lt;td&gt;IDGame-FK1&lt;/td&gt;&lt;td&gt;&lt;br&gt;&lt;/td&gt;&lt;/tr&gt;&lt;tr&gt;&lt;td&gt;IDSupplier-FK2&lt;br&gt;&lt;br&gt;&lt;br&gt;&lt;br&gt;&lt;/td&gt;&lt;td&gt;&lt;br&gt;&lt;/td&gt;&lt;/tr&gt;&lt;/tbody&gt;&lt;/table&gt;" style="verticalAlign=top;align=left;overflow=fill;html=1;" parent="1" vertex="1">
          <mxGeometry x="760" y="720" width="170" height="90" as="geometry" />
        </mxCell>
        <mxCell id="VUACEz1JpxJwVOecZVs_-40" value="" style="endArrow=open;endFill=1;endSize=12;html=1;exitX=0.5;exitY=1;exitDx=0;exitDy=0;entryX=0.5;entryY=0;entryDx=0;entryDy=0;" parent="1" source="VUACEz1JpxJwVOecZVs_-23" target="VUACEz1JpxJwVOecZVs_-38" edge="1">
          <mxGeometry width="160" relative="1" as="geometry">
            <mxPoint x="520" y="850" as="sourcePoint" />
            <mxPoint x="615" y="730" as="targetPoint" />
          </mxGeometry>
        </mxCell>
        <mxCell id="VUACEz1JpxJwVOecZVs_-41" value="&lt;div style=&quot;box-sizing: border-box ; width: 100% ; background: #e4e4e4 ; padding: 2px&quot;&gt;Customer&lt;/div&gt;&lt;table style=&quot;width: 100% ; font-size: 1em&quot; cellpadding=&quot;2&quot; cellspacing=&quot;0&quot;&gt;&lt;tbody&gt;&lt;tr&gt;&lt;td&gt;PK&lt;/td&gt;&lt;td&gt;IDCustomer&lt;/td&gt;&lt;/tr&gt;&lt;tr&gt;&lt;td&gt;IDISP-FK1&lt;/td&gt;&lt;td&gt;&lt;br&gt;&lt;/td&gt;&lt;/tr&gt;&lt;tr&gt;&lt;td&gt;&lt;br&gt;&lt;br&gt;&lt;br&gt;&lt;br&gt;&lt;/td&gt;&lt;td&gt;&lt;br&gt;&lt;/td&gt;&lt;/tr&gt;&lt;/tbody&gt;&lt;/table&gt;" style="verticalAlign=top;align=left;overflow=fill;html=1;" parent="1" vertex="1">
          <mxGeometry x="310" y="1110" width="170" height="70" as="geometry" />
        </mxCell>
        <mxCell id="VUACEz1JpxJwVOecZVs_-43" value="&lt;div style=&quot;box-sizing: border-box ; width: 100% ; background: #e4e4e4 ; padding: 2px&quot;&gt;Payment&lt;/div&gt;&lt;table style=&quot;width: 100% ; font-size: 1em&quot; cellpadding=&quot;2&quot; cellspacing=&quot;0&quot;&gt;&lt;tbody&gt;&lt;tr&gt;&lt;td&gt;PK&lt;/td&gt;&lt;td&gt;IDSubscriptionPayment&lt;/td&gt;&lt;/tr&gt;&lt;tr&gt;&lt;td&gt;IDCustomer-FK1&lt;br&gt;IDCompany-FK2&lt;br&gt;IDSupplier-FK3&lt;br&gt;IDSeller-FK4&lt;br&gt;&lt;br&gt;&lt;br&gt;&lt;br&gt;&lt;br&gt;&lt;/td&gt;&lt;td&gt;&lt;br&gt;&lt;br&gt;&lt;br&gt;&lt;br&gt;&lt;br&gt;&lt;/td&gt;&lt;/tr&gt;&lt;tr&gt;&lt;td&gt;&lt;br&gt;&lt;br&gt;&lt;br&gt;&lt;br&gt;&lt;/td&gt;&lt;td&gt;&lt;br&gt;&lt;/td&gt;&lt;/tr&gt;&lt;/tbody&gt;&lt;/table&gt;" style="verticalAlign=top;align=left;overflow=fill;html=1;" parent="1" vertex="1">
          <mxGeometry x="410" y="880" width="240" height="130" as="geometry" />
        </mxCell>
        <mxCell id="VUACEz1JpxJwVOecZVs_-44" value="" style="endArrow=open;endFill=1;endSize=12;html=1;entryX=0.402;entryY=-0.002;entryDx=0;entryDy=0;entryPerimeter=0;exitX=0;exitY=1;exitDx=0;exitDy=0;" parent="1" source="VUACEz1JpxJwVOecZVs_-23" target="VUACEz1JpxJwVOecZVs_-43" edge="1">
          <mxGeometry width="160" relative="1" as="geometry">
            <mxPoint x="440" y="780" as="sourcePoint" />
            <mxPoint x="600" y="780" as="targetPoint" />
          </mxGeometry>
        </mxCell>
        <mxCell id="VUACEz1JpxJwVOecZVs_-52" value="&lt;div style=&quot;box-sizing: border-box ; width: 100% ; background: #e4e4e4 ; padding: 2px&quot;&gt;SubscriptionPayment&lt;/div&gt;&lt;table style=&quot;width: 100% ; font-size: 1em&quot; cellpadding=&quot;2&quot; cellspacing=&quot;0&quot;&gt;&lt;tbody&gt;&lt;tr&gt;&lt;td&gt;PK&lt;/td&gt;&lt;td&gt;IDSubscriptionPayment&lt;/td&gt;&lt;/tr&gt;&lt;tr&gt;&lt;td&gt;IDPayment-FK1&lt;br&gt;IDSubscription-FK2&lt;br&gt;Price&lt;br&gt;Date&lt;br&gt;&lt;br&gt;&lt;br&gt;&lt;br&gt;&lt;/td&gt;&lt;td&gt;&lt;br&gt;&lt;br&gt;&lt;br&gt;&lt;br&gt;&lt;br&gt;&lt;/td&gt;&lt;/tr&gt;&lt;tr&gt;&lt;td&gt;&lt;br&gt;&lt;br&gt;&lt;br&gt;&lt;br&gt;&lt;/td&gt;&lt;td&gt;&lt;br&gt;&lt;/td&gt;&lt;/tr&gt;&lt;/tbody&gt;&lt;/table&gt;" style="verticalAlign=top;align=left;overflow=fill;html=1;" parent="1" vertex="1">
          <mxGeometry x="735" y="880" width="240" height="100" as="geometry" />
        </mxCell>
        <mxCell id="VUACEz1JpxJwVOecZVs_-53" value="&lt;div style=&quot;box-sizing: border-box ; width: 100% ; background: #e4e4e4 ; padding: 2px&quot;&gt;EquipmentPayment&lt;/div&gt;&lt;table style=&quot;width: 100% ; font-size: 1em&quot; cellpadding=&quot;2&quot; cellspacing=&quot;0&quot;&gt;&lt;tbody&gt;&lt;tr&gt;&lt;td&gt;PK&lt;/td&gt;&lt;td&gt;IDEquipmentPayment&lt;/td&gt;&lt;/tr&gt;&lt;tr&gt;&lt;td&gt;IDPayment-FK1&lt;br&gt;IDEquipment-FK2&lt;br&gt;Price&lt;br&gt;Date&lt;br&gt;&lt;br&gt;&lt;br&gt;&lt;br&gt;&lt;/td&gt;&lt;td&gt;&lt;br&gt;&lt;br&gt;&lt;br&gt;&lt;br&gt;&lt;br&gt;&lt;/td&gt;&lt;/tr&gt;&lt;tr&gt;&lt;td&gt;&lt;br&gt;&lt;br&gt;&lt;br&gt;&lt;br&gt;&lt;/td&gt;&lt;td&gt;&lt;br&gt;&lt;/td&gt;&lt;/tr&gt;&lt;/tbody&gt;&lt;/table&gt;" style="verticalAlign=top;align=left;overflow=fill;html=1;" parent="1" vertex="1">
          <mxGeometry x="735" y="1010" width="240" height="130" as="geometry" />
        </mxCell>
        <mxCell id="VUACEz1JpxJwVOecZVs_-54" value="&lt;div style=&quot;box-sizing: border-box ; width: 100% ; background: #e4e4e4 ; padding: 2px&quot;&gt;Subscription&lt;/div&gt;&lt;table style=&quot;width: 100% ; font-size: 1em&quot; cellpadding=&quot;2&quot; cellspacing=&quot;0&quot;&gt;&lt;tbody&gt;&lt;tr&gt;&lt;td&gt;PK&lt;/td&gt;&lt;td&gt;IDSubscription&lt;/td&gt;&lt;/tr&gt;&lt;tr&gt;&lt;td&gt;IDGame-FK1&lt;/td&gt;&lt;td&gt;&lt;br&gt;&lt;/td&gt;&lt;/tr&gt;&lt;tr&gt;&lt;td&gt;IDSupplier-FK2&lt;br&gt;&lt;br&gt;&lt;br&gt;&lt;br&gt;&lt;/td&gt;&lt;td&gt;&lt;br&gt;&lt;/td&gt;&lt;/tr&gt;&lt;/tbody&gt;&lt;/table&gt;" style="verticalAlign=top;align=left;overflow=fill;html=1;" parent="1" vertex="1">
          <mxGeometry x="550" y="720" width="170" height="90" as="geometry" />
        </mxCell>
        <mxCell id="VUACEz1JpxJwVOecZVs_-55" value="" style="endArrow=open;endFill=1;endSize=12;html=1;exitX=0.5;exitY=1;exitDx=0;exitDy=0;entryX=0.25;entryY=0;entryDx=0;entryDy=0;" parent="1" source="VUACEz1JpxJwVOecZVs_-23" target="VUACEz1JpxJwVOecZVs_-54" edge="1">
          <mxGeometry width="160" relative="1" as="geometry">
            <mxPoint x="580" y="700" as="sourcePoint" />
            <mxPoint x="740" y="700" as="targetPoint" />
          </mxGeometry>
        </mxCell>
        <mxCell id="VUACEz1JpxJwVOecZVs_-56" value="" style="endArrow=open;endFill=1;endSize=12;html=1;exitX=1.01;exitY=0.854;exitDx=0;exitDy=0;exitPerimeter=0;entryX=-0.004;entryY=0.921;entryDx=0;entryDy=0;entryPerimeter=0;" parent="1" source="VUACEz1JpxJwVOecZVs_-43" target="VUACEz1JpxJwVOecZVs_-53" edge="1">
          <mxGeometry width="160" relative="1" as="geometry">
            <mxPoint x="650" y="940" as="sourcePoint" />
            <mxPoint x="1009" y="990" as="targetPoint" />
          </mxGeometry>
        </mxCell>
        <mxCell id="VUACEz1JpxJwVOecZVs_-57" value="" style="endArrow=open;endFill=1;endSize=12;html=1;exitX=1;exitY=0.5;exitDx=0;exitDy=0;entryX=0;entryY=0.5;entryDx=0;entryDy=0;" parent="1" source="VUACEz1JpxJwVOecZVs_-43" target="VUACEz1JpxJwVOecZVs_-52" edge="1">
          <mxGeometry width="160" relative="1" as="geometry">
            <mxPoint x="660" y="970" as="sourcePoint" />
            <mxPoint x="820" y="970" as="targetPoint" />
          </mxGeometry>
        </mxCell>
        <mxCell id="VUACEz1JpxJwVOecZVs_-58" value="" style="endArrow=open;endFill=1;endSize=12;html=1;entryX=1;entryY=0.869;entryDx=0;entryDy=0;entryPerimeter=0;exitX=0.347;exitY=1.004;exitDx=0;exitDy=0;exitPerimeter=0;" parent="1" source="VUACEz1JpxJwVOecZVs_-38" target="VUACEz1JpxJwVOecZVs_-53" edge="1">
          <mxGeometry width="160" relative="1" as="geometry">
            <mxPoint x="820" y="840" as="sourcePoint" />
            <mxPoint x="1070" y="1150" as="targetPoint" />
            <Array as="points">
              <mxPoint x="820" y="830" />
              <mxPoint x="1000" y="828" />
              <mxPoint x="1000" y="1123" />
            </Array>
          </mxGeometry>
        </mxCell>
        <mxCell id="VUACEz1JpxJwVOecZVs_-59" value="" style="endArrow=open;endFill=1;endSize=12;html=1;exitX=0.701;exitY=1.02;exitDx=0;exitDy=0;exitPerimeter=0;entryX=0;entryY=0.443;entryDx=0;entryDy=0;entryPerimeter=0;" parent="1" source="VUACEz1JpxJwVOecZVs_-54" target="VUACEz1JpxJwVOecZVs_-52" edge="1">
          <mxGeometry width="160" relative="1" as="geometry">
            <mxPoint x="680" y="870" as="sourcePoint" />
            <mxPoint x="730" y="930" as="targetPoint" />
          </mxGeometry>
        </mxCell>
        <mxCell id="VUACEz1JpxJwVOecZVs_-60" value="&lt;div style=&quot;box-sizing: border-box ; width: 100% ; background: #e4e4e4 ; padding: 2px&quot;&gt;SpecificDesignPayment&lt;/div&gt;&lt;table style=&quot;width: 100% ; font-size: 1em&quot; cellpadding=&quot;2&quot; cellspacing=&quot;0&quot;&gt;&lt;tbody&gt;&lt;tr&gt;&lt;td&gt;PK&lt;/td&gt;&lt;td&gt;IDSubscriptionPayment&lt;/td&gt;&lt;/tr&gt;&lt;tr&gt;&lt;td&gt;IDPayment-FK1&lt;br&gt;IDSpecificDesign-FK2&lt;br&gt;Price&lt;br&gt;Date&lt;br&gt;&lt;br&gt;&lt;br&gt;&lt;br&gt;&lt;/td&gt;&lt;td&gt;&lt;br&gt;&lt;br&gt;&lt;br&gt;&lt;br&gt;&lt;br&gt;&lt;/td&gt;&lt;/tr&gt;&lt;tr&gt;&lt;td&gt;&lt;br&gt;&lt;br&gt;&lt;br&gt;&lt;br&gt;&lt;/td&gt;&lt;td&gt;&lt;br&gt;&lt;/td&gt;&lt;/tr&gt;&lt;/tbody&gt;&lt;/table&gt;" style="verticalAlign=top;align=left;overflow=fill;html=1;" parent="1" vertex="1">
          <mxGeometry x="1010" y="960" width="240" height="100" as="geometry" />
        </mxCell>
        <mxCell id="VUACEz1JpxJwVOecZVs_-61" value="" style="endArrow=open;endFill=1;endSize=12;html=1;entryX=0.611;entryY=1;entryDx=0;entryDy=0;entryPerimeter=0;" parent="1" source="VUACEz1JpxJwVOecZVs_-43" target="VUACEz1JpxJwVOecZVs_-60" edge="1">
          <mxGeometry width="160" relative="1" as="geometry">
            <mxPoint x="600" y="1060" as="sourcePoint" />
            <mxPoint x="1190" y="1190" as="targetPoint" />
            <Array as="points">
              <mxPoint x="533" y="1200" />
              <mxPoint x="1177" y="1200" />
            </Array>
          </mxGeometry>
        </mxCell>
        <mxCell id="VUACEz1JpxJwVOecZVs_-63" value="&lt;div style=&quot;box-sizing: border-box ; width: 100% ; background: #e4e4e4 ; padding: 2px&quot;&gt;SpecificDesign&lt;/div&gt;&lt;table style=&quot;width: 100% ; font-size: 1em&quot; cellpadding=&quot;2&quot; cellspacing=&quot;0&quot;&gt;&lt;tbody&gt;&lt;tr&gt;&lt;td&gt;PK&lt;/td&gt;&lt;td&gt;IDSpecificDesign&lt;/td&gt;&lt;/tr&gt;&lt;tr&gt;&lt;td&gt;IDEqipment-FK1&lt;/td&gt;&lt;td&gt;&lt;br&gt;&lt;/td&gt;&lt;/tr&gt;&lt;tr&gt;&lt;td&gt;IDSpecificDesign-FK2&lt;br&gt;&lt;br&gt;&lt;br&gt;&lt;br&gt;&lt;/td&gt;&lt;td&gt;&lt;br&gt;&lt;/td&gt;&lt;/tr&gt;&lt;/tbody&gt;&lt;/table&gt;" style="verticalAlign=top;align=left;overflow=fill;html=1;" parent="1" vertex="1">
          <mxGeometry x="975" y="720" width="215" height="90" as="geometry" />
        </mxCell>
        <mxCell id="VUACEz1JpxJwVOecZVs_-64" value="" style="endArrow=open;endFill=1;endSize=12;html=1;exitX=0.998;exitY=0.574;exitDx=0;exitDy=0;exitPerimeter=0;entryX=0.006;entryY=0.574;entryDx=0;entryDy=0;entryPerimeter=0;" parent="1" source="VUACEz1JpxJwVOecZVs_-38" target="VUACEz1JpxJwVOecZVs_-63" edge="1">
          <mxGeometry width="160" relative="1" as="geometry">
            <mxPoint x="940" y="770" as="sourcePoint" />
            <mxPoint x="960" y="770" as="targetPoint" />
          </mxGeometry>
        </mxCell>
        <mxCell id="nZaoIRcI5--esgN29cSS-1" value="&lt;div style=&quot;box-sizing: border-box ; width: 100% ; background: #e4e4e4 ; padding: 2px&quot;&gt;SupplierTransactionPayment&lt;/div&gt;&lt;table style=&quot;width: 100% ; font-size: 1em&quot; cellpadding=&quot;2&quot; cellspacing=&quot;0&quot;&gt;&lt;tbody&gt;&lt;tr&gt;&lt;td&gt;PK&lt;/td&gt;&lt;td&gt;IDSupplierPayment&lt;/td&gt;&lt;/tr&gt;&lt;tr&gt;&lt;td&gt;IDPayment-FK1&lt;br&gt;IDSupplier-FK2&lt;br&gt;Price&lt;br&gt;Date&lt;br&gt;&lt;br&gt;&lt;br&gt;&lt;br&gt;&lt;/td&gt;&lt;td&gt;&lt;br&gt;&lt;br&gt;&lt;br&gt;&lt;br&gt;&lt;br&gt;&lt;/td&gt;&lt;/tr&gt;&lt;tr&gt;&lt;td&gt;&lt;br&gt;&lt;br&gt;&lt;br&gt;&lt;br&gt;&lt;/td&gt;&lt;td&gt;&lt;br&gt;&lt;/td&gt;&lt;/tr&gt;&lt;/tbody&gt;&lt;/table&gt;" style="verticalAlign=top;align=left;overflow=fill;html=1;" vertex="1" parent="1">
          <mxGeometry x="10" y="910" width="240" height="100" as="geometry" />
        </mxCell>
        <mxCell id="nZaoIRcI5--esgN29cSS-5" value="" style="endArrow=open;endFill=1;endSize=12;html=1;entryX=0.636;entryY=1.018;entryDx=0;entryDy=0;entryPerimeter=0;exitX=0.5;exitY=0;exitDx=0;exitDy=0;" edge="1" parent="1" source="VUACEz1JpxJwVOecZVs_-23" target="VUACEz1JpxJwVOecZVs_-18">
          <mxGeometry width="160" relative="1" as="geometry">
            <mxPoint x="540" y="570" as="sourcePoint" />
            <mxPoint x="700" y="570" as="targetPoint" />
          </mxGeometry>
        </mxCell>
        <mxCell id="nZaoIRcI5--esgN29cSS-7" value="" style="endArrow=open;endFill=1;endSize=12;html=1;" edge="1" parent="1">
          <mxGeometry width="160" relative="1" as="geometry">
            <mxPoint x="1087" y="810" as="sourcePoint" />
            <mxPoint x="1087" y="960" as="targetPoint" />
          </mxGeometry>
        </mxCell>
        <mxCell id="nZaoIRcI5--esgN29cSS-8" value="" style="endArrow=open;endFill=1;endSize=12;html=1;exitX=0;exitY=0.5;exitDx=0;exitDy=0;entryX=1;entryY=0.5;entryDx=0;entryDy=0;" edge="1" parent="1" source="VUACEz1JpxJwVOecZVs_-43" target="nZaoIRcI5--esgN29cSS-1">
          <mxGeometry width="160" relative="1" as="geometry">
            <mxPoint x="290" y="940" as="sourcePoint" />
            <mxPoint x="320" y="870" as="targetPoint" />
          </mxGeometry>
        </mxCell>
        <mxCell id="nZaoIRcI5--esgN29cSS-9" value="" style="endArrow=open;endFill=1;endSize=12;html=1;entryX=0.287;entryY=1.023;entryDx=0;entryDy=0;entryPerimeter=0;exitX=0.4;exitY=-0.029;exitDx=0;exitDy=0;exitPerimeter=0;" edge="1" parent="1" source="VUACEz1JpxJwVOecZVs_-41" target="VUACEz1JpxJwVOecZVs_-43">
          <mxGeometry width="160" relative="1" as="geometry">
            <mxPoint x="370" y="1080" as="sourcePoint" />
            <mxPoint x="530" y="1080" as="targetPoint" />
          </mxGeometry>
        </mxCell>
        <mxCell id="nZaoIRcI5--esgN29cSS-10" value="&lt;div style=&quot;box-sizing: border-box ; width: 100% ; background: #e4e4e4 ; padding: 2px&quot;&gt;GameForum&lt;/div&gt;&lt;table style=&quot;width: 100% ; font-size: 1em&quot; cellpadding=&quot;2&quot; cellspacing=&quot;0&quot;&gt;&lt;tbody&gt;&lt;tr&gt;&lt;td&gt;PK&lt;/td&gt;&lt;td&gt;IDGameForum&lt;/td&gt;&lt;/tr&gt;&lt;tr&gt;&lt;td&gt;FK1-IDCustomer&lt;/td&gt;&lt;td&gt;&lt;br&gt;&lt;/td&gt;&lt;/tr&gt;&lt;tr&gt;&lt;td&gt;&lt;/td&gt;&lt;td&gt;&lt;br&gt;&lt;/td&gt;&lt;/tr&gt;&lt;/tbody&gt;&lt;/table&gt;" style="verticalAlign=top;align=left;overflow=fill;html=1;" vertex="1" parent="1">
          <mxGeometry x="150" y="190" width="180" height="100" as="geometry" />
        </mxCell>
        <mxCell id="nZaoIRcI5--esgN29cSS-11" value="" style="endArrow=open;endFill=1;endSize=12;html=1;entryX=0.587;entryY=1.02;entryDx=0;entryDy=0;entryPerimeter=0;exitX=0.447;exitY=0.007;exitDx=0;exitDy=0;exitPerimeter=0;" edge="1" parent="1" source="VUACEz1JpxJwVOecZVs_-1" target="nZaoIRcI5--esgN29cSS-10">
          <mxGeometry width="160" relative="1" as="geometry">
            <mxPoint x="170" y="360" as="sourcePoint" />
            <mxPoint x="330" y="360" as="targetPoint" />
          </mxGeometry>
        </mxCell>
        <mxCell id="nZaoIRcI5--esgN29cSS-12" value="&lt;div style=&quot;box-sizing: border-box ; width: 100% ; background: #e4e4e4 ; padding: 2px&quot;&gt;Advertisemnet&lt;/div&gt;&lt;table style=&quot;width: 100% ; font-size: 1em&quot; cellpadding=&quot;2&quot; cellspacing=&quot;0&quot;&gt;&lt;tbody&gt;&lt;tr&gt;&lt;td&gt;PK&lt;/td&gt;&lt;td&gt;IDAdvertisement&lt;/td&gt;&lt;/tr&gt;&lt;tr&gt;&lt;td&gt;&lt;br&gt;&lt;/td&gt;&lt;td&gt;&lt;br&gt;&lt;/td&gt;&lt;/tr&gt;&lt;tr&gt;&lt;td&gt;&lt;/td&gt;&lt;td&gt;&lt;br&gt;&lt;/td&gt;&lt;/tr&gt;&lt;/tbody&gt;&lt;/table&gt;" style="verticalAlign=top;align=left;overflow=fill;html=1;" vertex="1" parent="1">
          <mxGeometry x="420" y="180" width="180" height="100" as="geometry" />
        </mxCell>
        <mxCell id="nZaoIRcI5--esgN29cSS-14" value="" style="endArrow=open;endFill=1;endSize=12;html=1;exitX=1;exitY=0.5;exitDx=0;exitDy=0;exitPerimeter=0;" edge="1" parent="1" source="nZaoIRcI5--esgN29cSS-10">
          <mxGeometry width="160" relative="1" as="geometry">
            <mxPoint x="340" y="240" as="sourcePoint" />
            <mxPoint x="420" y="240" as="targetPoint" />
          </mxGeometry>
        </mxCell>
      </root>
    </mxGraphModel>
  </diagram>
</mxfile>
